Snuf de Hond en de IJsvogel (2010) Alternatieve titels: Snuf en de IJsvogel, Snuf De Hond - En de IJsvogel 

Nederland
Familie / Avontuur
85 minuten

geregisseerd door Steven de Jong
met Ydwer Bosma, Joosje Duk en Pim Wessels

Op de Vredehoeve is een Bed & Breakfast gekomen met de mogelijkheid om boten te huren. Met een van die boten, 'De IJsvogel', gaan Tom en Mirjam op vakantie. Ze gaan hierbij verschillende jaarmarkten af. Op een van de markten ziet Snuf twee jongens, Niels en Jimmy, die aan het zakkenrollen zijn in opdracht van hun vader. Op een nacht breken die twee jongens in en de bewoner ziet de twee jongens en hun hond Loebas wegrennen. De eigenaar verdenkt Tom en Mirjam die hij die dag zich verdacht zag gedragen op de jaarmarkt en stapt naar de politie. Ze worden hierna onterecht gevangengenomen. Met hulp van Snuf ontsnappen ze om zo hun onschuld te gaan bewijzen.

Audio: Dutch-Nederlands.
 
http://moviemeter.nl/film/73346

General
Complete name                    : Snuf de Hond en de IJsvogel-AC3-XviD-DVDRip 2010 TBS\Snuf de Hond en de IJsvogel-AC3-XviD-DVDRip 2010 TBS.avi
Format                           : AVI
Format/Info                      : Audio Video Interleave
File size                        : 1.36 GiB
Duration                         : 1h 18mn
Overall bit rate                 : 2 496 Kbps
Writing application              : VirtualDubMod 1.5.4.1 (build 2178/release)
Writing library                  : VirtualDubMod build 2178/release

Video
ID                               : 0
Format                           : MPEG-4 Visual
Format profile                   : Simple@L3
Format settings, BVOP            : No
Format settings, QPel            : No
Format settings, GMC             : No warppoints
Format settings, Matrix          : Default (H.263)
Codec ID                         : XVID
Codec ID/Hint                    : XviD
Duration                         : 1h 18mn
Bit rate                         : 2 038 Kbps
Width                            : 720 pixels
Height                           : 400 pixels
Display aspect ratio             : 16:9
Frame rate                       : 25.000 fps
Resolution                       : 8 bits
Colorimetry                      : 4:2:0
Scan type                        : Progressive
Bits/(Pixel*Frame)               : 0.283
Stream size                      : 1.11 GiB (82%)
Writing library                  : XviD 1.1.2 (UTC 2006-11-01)

Audio
ID                               : 1
Format                           : AC-3
Format/Info                      : Audio Coding 3
Codec ID                         : 2000
Duration                         : 1h 18mn
Bit rate mode                    : Constant
Bit rate                         : 448 Kbps
Channel(s)                       : 6 channels
Channel positions                : Front: L C R, Surround: L R, LFE
Sampling rate                    : 48.0 KHz
Stream size                      : 250 MiB (18%)
Alignment                        : Split accross interleaves
Interleave, duration             : 40 ms (1.00 video frame)
Interleave, preload duration     : 500 ms

Thanks to Just4fun-Team.

Blackbeard  TBS.